<svg xmlns="http://www.w3.org/2000/svg" xmlns:xlink="http://www.w3.org/1999/xlink" width="1814" height="972" contentScriptType="application/ecmascript" contentStyleType="text/css" style="width:1814px;height:972px" preserveAspectRatio="none" version="1.1" viewBox="0 0 1814 972" zoomAndPan="magnify"><defs><filter id="f1pek7y79dp0kg" width="300%" height="300%" x="-1" y="-1"><feGaussianBlur result="blurOut" stdDeviation="2"/><feColorMatrix in="blurOut" result="blurOut2" type="matrix" values="0 0 0 0 0 0 0 0 0 0 0 0 0 0 0 0 0 0 .4 0"/><feOffset dx="4" dy="4" in="blurOut2" result="blurOut3"/><feBlend in="SourceGraphic" in2="blurOut3" mode="normal"/></filter></defs><g><rect style="stroke:#a80036;stroke-width:1" width="141" height="957.006" x="9" y="4" fill="#F7DCC6"/><rect style="stroke:#a80036;stroke-width:1" width="141" height="957.006" x="251" y="4" fill="#F5E6B3"/><text x="295" y="16.568" fill="#000" font-family="sans-serif" font-size="13" font-weight="bold" lengthAdjust="spacingAndGlyphs" textLength="53">Calypso</text><rect style="stroke:#a80036;stroke-width:1" width="1383" height="957.006" x="404" y="4" fill="#B8E6BF"/><text x="1026.5" y="16.568" fill="#000" font-family="sans-serif" font-size="13" font-weight="bold" lengthAdjust="spacingAndGlyphs" textLength="138">Composite Checkout</text><rect style="stroke:#a80036;stroke-width:1" width="10" height="14" x="74.5" y="626.033" fill="#FFF" filter="url(#f1pek7y79dp0kg)"/><rect style="stroke:#a80036;stroke-width:1" width="10" height="57.31" x="316.5" y="596.723" fill="#FFF" filter="url(#f1pek7y79dp0kg)"/><rect style="stroke:#a80036;stroke-width:1" width="10" height="29.311" x="653.5" y="330.594" fill="#FFF" filter="url(#f1pek7y79dp0kg)"/><rect style="stroke:#a80036;stroke-width:1" width="10" height="14" x="1068.5" y="203.352" fill="#FFF" filter="url(#f1pek7y79dp0kg)"/><rect style="stroke:#a80036;stroke-width:1" width="10" height="29.311" x="1676.5" y="508.791" fill="#FFF" filter="url(#f1pek7y79dp0kg)"/><line style="stroke:#a80036;stroke-width:1" x1="79" x2="79" y1="58.799" y2="422.525"/><line style="stroke:#a80036;stroke-width:1;stroke-dasharray:1,4" x1="79" x2="79" y1="422.525" y2="463.481"/><line style="stroke:#a80036;stroke-width:1" x1="79" x2="79" y1="463.481" y2="922.518"/><line style="stroke:#a80036;stroke-width:1" x1="321" x2="321" y1="58.799" y2="422.525"/><line style="stroke:#a80036;stroke-width:1;stroke-dasharray:1,4" x1="321" x2="321" y1="422.525" y2="463.481"/><line style="stroke:#a80036;stroke-width:1" x1="321" x2="321" y1="463.481" y2="922.518"/><line style="stroke:#a80036;stroke-width:1" x1="491" x2="491" y1="58.799" y2="422.525"/><line style="stroke:#a80036;stroke-width:1;stroke-dasharray:1,4" x1="491" x2="491" y1="422.525" y2="463.481"/><line style="stroke:#a80036;stroke-width:1" x1="491" x2="491" y1="463.481" y2="922.518"/><line style="stroke:#a80036;stroke-width:1" x1="658" x2="658" y1="58.799" y2="422.525"/><line style="stroke:#a80036;stroke-width:1;stroke-dasharray:1,4" x1="658" x2="658" y1="422.525" y2="463.481"/><line style="stroke:#a80036;stroke-width:1" x1="658" x2="658" y1="463.481" y2="922.518"/><line style="stroke:#a80036;stroke-width:1" x1="851" x2="851" y1="58.799" y2="422.525"/><line style="stroke:#a80036;stroke-width:1;stroke-dasharray:1,4" x1="851" x2="851" y1="422.525" y2="463.481"/><line style="stroke:#a80036;stroke-width:1" x1="851" x2="851" y1="463.481" y2="922.518"/><line style="stroke:#a80036;stroke-width:1" x1="1073" x2="1073" y1="58.799" y2="422.525"/><line style="stroke:#a80036;stroke-width:1;stroke-dasharray:1,4" x1="1073" x2="1073" y1="422.525" y2="463.481"/><line style="stroke:#a80036;stroke-width:1" x1="1073" x2="1073" y1="463.481" y2="922.518"/><line style="stroke:#a80036;stroke-width:1" x1="1277" x2="1277" y1="58.799" y2="422.525"/><line style="stroke:#a80036;stroke-width:1;stroke-dasharray:1,4" x1="1277" x2="1277" y1="422.525" y2="463.481"/><line style="stroke:#a80036;stroke-width:1" x1="1277" x2="1277" y1="463.481" y2="922.518"/><line style="stroke:#a80036;stroke-width:1" x1="1473" x2="1473" y1="58.799" y2="422.525"/><line style="stroke:#a80036;stroke-width:1;stroke-dasharray:1,4" x1="1473" x2="1473" y1="422.525" y2="463.481"/><line style="stroke:#a80036;stroke-width:1" x1="1473" x2="1473" y1="463.481" y2="922.518"/><line style="stroke:#a80036;stroke-width:1" x1="1681" x2="1681" y1="58.799" y2="422.525"/><line style="stroke:#a80036;stroke-width:1;stroke-dasharray:1,4" x1="1681" x2="1681" y1="422.525" y2="463.481"/><line style="stroke:#a80036;stroke-width:1" x1="1681" x2="1681" y1="463.481" y2="922.518"/><rect style="stroke:#a80036;stroke-width:1.5" width="119" height="30.488" x="18" y="23.311" fill="#FEFECE" filter="url(#f1pek7y79dp0kg)"/><text x="25" y="43.846" fill="#000" font-family="sans-serif" font-size="14" lengthAdjust="spacingAndGlyphs" textLength="105">WordPress.com</text><rect style="stroke:#a80036;stroke-width:1.5" width="119" height="30.488" x="18" y="921.518" fill="#FEFECE" filter="url(#f1pek7y79dp0kg)"/><text x="25" y="942.053" fill="#000" font-family="sans-serif" font-size="14" lengthAdjust="spacingAndGlyphs" textLength="105">WordPress.com</text><rect style="stroke:#a80036;stroke-width:1.5" width="119" height="30.488" x="260" y="23.311" fill="#FEFECE" filter="url(#f1pek7y79dp0kg)"/><text x="267" y="43.846" fill="#000" font-family="sans-serif" font-size="14" lengthAdjust="spacingAndGlyphs" textLength="105">Undocumented</text><rect style="stroke:#a80036;stroke-width:1.5" width="119" height="30.488" x="260" y="921.518" fill="#FEFECE" filter="url(#f1pek7y79dp0kg)"/><text x="267" y="942.053" fill="#000" font-family="sans-serif" font-size="14" lengthAdjust="spacingAndGlyphs" textLength="105">Undocumented</text><rect style="stroke:#a80036;stroke-width:1.5" width="153" height="30.488" x="413" y="23.311" fill="#FEFECE" filter="url(#f1pek7y79dp0kg)"/><text x="420" y="43.846" fill="#000" font-family="sans-serif" font-size="14" lengthAdjust="spacingAndGlyphs" textLength="139">CompositeCheckout</text><rect style="stroke:#a80036;stroke-width:1.5" width="153" height="30.488" x="413" y="921.518" fill="#FEFECE" filter="url(#f1pek7y79dp0kg)"/><text x="420" y="942.053" fill="#000" font-family="sans-serif" font-size="14" lengthAdjust="spacingAndGlyphs" textLength="139">CompositeCheckout</text><rect style="stroke:#a80036;stroke-width:1.5" width="133" height="30.488" x="590" y="23.311" fill="#FEFECE" filter="url(#f1pek7y79dp0kg)"/><text x="597" y="43.846" fill="#000" font-family="sans-serif" font-size="14" lengthAdjust="spacingAndGlyphs" textLength="119">useShoppingCart</text><rect style="stroke:#a80036;stroke-width:1.5" width="133" height="30.488" x="590" y="921.518" fill="#FEFECE" filter="url(#f1pek7y79dp0kg)"/><text x="597" y="942.053" fill="#000" font-family="sans-serif" font-size="14" lengthAdjust="spacingAndGlyphs" textLength="119">useShoppingCart</text><rect style="stroke:#a80036;stroke-width:1.5" width="204" height="30.488" x="747" y="23.311" fill="#FEFECE" filter="url(#f1pek7y79dp0kg)"/><text x="754" y="43.846" fill="#000" font-family="sans-serif" font-size="14" lengthAdjust="spacingAndGlyphs" textLength="190">useInitializeCartFromServer</text><rect style="stroke:#a80036;stroke-width:1.5" width="204" height="30.488" x="747" y="921.518" fill="#FEFECE" filter="url(#f1pek7y79dp0kg)"/><text x="754" y="942.053" fill="#000" font-family="sans-serif" font-size="14" lengthAdjust="spacingAndGlyphs" textLength="190">useInitializeCartFromServer</text><rect style="stroke:#a80036;stroke-width:1.5" width="193" height="30.488" x="975" y="23.311" fill="#FEFECE" filter="url(#f1pek7y79dp0kg)"/><text x="982" y="43.846" fill="#000" font-family="sans-serif" font-size="14" lengthAdjust="spacingAndGlyphs" textLength="179">useShoppingCartManager</text><rect style="stroke:#a80036;stroke-width:1.5" width="193" height="30.488" x="975" y="921.518" fill="#FEFECE" filter="url(#f1pek7y79dp0kg)"/><text x="982" y="942.053" fill="#000" font-family="sans-serif" font-size="14" lengthAdjust="spacingAndGlyphs" textLength="179">useShoppingCartManager</text><rect style="stroke:#a80036;stroke-width:1.5" width="166" height="30.488" x="1192" y="23.311" fill="#FEFECE" filter="url(#f1pek7y79dp0kg)"/><text x="1199" y="43.846" fill="#000" font-family="sans-serif" font-size="14" lengthAdjust="spacingAndGlyphs" textLength="152">ShoppingCartProvider</text><rect style="stroke:#a80036;stroke-width:1.5" width="166" height="30.488" x="1192" y="921.518" fill="#FEFECE" filter="url(#f1pek7y79dp0kg)"/><text x="1199" y="942.053" fill="#000" font-family="sans-serif" font-size="14" lengthAdjust="spacingAndGlyphs" textLength="152">ShoppingCartProvider</text><rect style="stroke:#a80036;stroke-width:1.5" width="179" height="30.488" x="1382" y="23.311" fill="#FEFECE" filter="url(#f1pek7y79dp0kg)"/><text x="1389" y="43.846" fill="#000" font-family="sans-serif" font-size="14" lengthAdjust="spacingAndGlyphs" textLength="165">CheckoutSystemDecider</text><rect style="stroke:#a80036;stroke-width:1.5" width="179" height="30.488" x="1382" y="921.518" fill="#FEFECE" filter="url(#f1pek7y79dp0kg)"/><text x="1389" y="942.053" fill="#000" font-family="sans-serif" font-size="14" lengthAdjust="spacingAndGlyphs" textLength="165">CheckoutSystemDecider</text><rect style="stroke:#a80036;stroke-width:1.5" width="189" height="30.488" x="1585" y="23.311" fill="#FEFECE" filter="url(#f1pek7y79dp0kg)"/><text x="1592" y="43.846" fill="#000" font-family="sans-serif" font-size="14" lengthAdjust="spacingAndGlyphs" textLength="175">useShoppingCartReducer</text><rect style="stroke:#a80036;stroke-width:1.5" width="189" height="30.488" x="1585" y="921.518" fill="#FEFECE" filter="url(#f1pek7y79dp0kg)"/><text x="1592" y="942.053" fill="#000" font-family="sans-serif" font-size="14" lengthAdjust="spacingAndGlyphs" textLength="175">useShoppingCartReducer</text><rect style="stroke:#a80036;stroke-width:1" width="10" height="14" x="74.5" y="626.033" fill="#FFF" filter="url(#f1pek7y79dp0kg)"/><rect style="stroke:#a80036;stroke-width:1" width="10" height="57.31" x="316.5" y="596.723" fill="#FFF" filter="url(#f1pek7y79dp0kg)"/><rect style="stroke:#a80036;stroke-width:1" width="10" height="29.311" x="653.5" y="330.594" fill="#FFF" filter="url(#f1pek7y79dp0kg)"/><rect style="stroke:#a80036;stroke-width:1" width="10" height="14" x="1068.5" y="203.352" fill="#FFF" filter="url(#f1pek7y79dp0kg)"/><rect style="stroke:#a80036;stroke-width:1" width="10" height="29.311" x="1676.5" y="508.791" fill="#FFF" filter="url(#f1pek7y79dp0kg)"/><polygon fill="#A80036" points="1461.5 86.109 1471.5 90.109 1461.5 94.109 1465.5 90.109" style="stroke:#a80036;stroke-width:1"/><line style="stroke:#a80036;stroke-width:1" x1="321.5" x2="1467.5" y1="90.109" y2="90.109"/><text x="328.5" y="85.367" fill="#000" font-family="sans-serif" font-size="13" lengthAdjust="spacingAndGlyphs" textLength="92">import getCart</text><path fill="#FBFB77" d="M1394,103.1094 L1394,143.1094 L1549,143.1094 L1549,113.1094 L1539,103.1094 L1394,103.1094" filter="url(#f1pek7y79dp0kg)" style="stroke:#a80036;stroke-width:1"/><path fill="#FBFB77" d="M1539,103.1094 L1539,113.1094 L1549,113.1094 L1539,103.1094" style="stroke:#a80036;stroke-width:1"/><text x="1400" y="120.678" fill="#000" font-family="sans-serif" font-size="13" lengthAdjust="spacingAndGlyphs" textLength="98">cart from props</text><text x="1400" y="135.988" fill="#000" font-family="sans-serif" font-size="13" lengthAdjust="spacingAndGlyphs" textLength="134">or fall back to import</text><polygon fill="#A80036" points="1288 170.041 1278 174.041 1288 178.041 1284 174.041" style="stroke:#a80036;stroke-width:1"/><line style="stroke:#a80036;stroke-width:1" x1="1282" x2="1472.5" y1="174.041" y2="174.041"/><text x="1294" y="169.299" fill="#000" font-family="sans-serif" font-size="13" lengthAdjust="spacingAndGlyphs" textLength="100">cartKey, getCart</text><polygon fill="#A80036" points="1089.5 199.352 1079.5 203.352 1089.5 207.352 1085.5 203.352" style="stroke:#a80036;stroke-width:1"/><line style="stroke:#a80036;stroke-width:1" x1="1083.5" x2="1276" y1="203.352" y2="203.352"/><text x="1095.5" y="198.609" fill="#000" font-family="sans-serif" font-size="13" lengthAdjust="spacingAndGlyphs" textLength="100">cartKey, getCart</text><polygon fill="#A80036" points="1265 213.352 1275 217.352 1265 221.352 1269 217.352" style="stroke:#a80036;stroke-width:1"/><line style="stroke:#a80036;stroke-width:1;stroke-dasharray:2,2" x1="1073.5" x2="1271" y1="217.352" y2="217.352"/><path fill="#FBFB77" d="M1189,230.3516 L1189,270.3516 L1361,270.3516 L1361,240.3516 L1351,230.3516 L1189,230.3516" filter="url(#f1pek7y79dp0kg)" style="stroke:#a80036;stroke-width:1"/><path fill="#FBFB77" d="M1351,230.3516 L1351,240.3516 L1361,240.3516 L1351,230.3516" style="stroke:#a80036;stroke-width:1"/><text x="1195" y="247.92" fill="#000" font-family="sans-serif" font-size="13" lengthAdjust="spacingAndGlyphs" textLength="54">manager</text><text x="1195" y="263.231" fill="#000" font-family="sans-serif" font-size="13" lengthAdjust="spacingAndGlyphs" textLength="151">stored as provider value</text><polygon fill="#A80036" points="669.5 312.594 659.5 316.594 669.5 320.594 665.5 316.594" style="stroke:#a80036;stroke-width:1"/><line style="stroke:#a80036;stroke-width:1" x1="663.5" x2="1276" y1="316.594" y2="316.594"/><text x="675.5" y="296.541" fill="#000" font-family="sans-serif" font-size="13" lengthAdjust="spacingAndGlyphs" textLength="121">cacheStatus: &apos;fresh&apos;</text><text x="675.5" y="311.852" fill="#000" font-family="sans-serif" font-size="13" lengthAdjust="spacingAndGlyphs" textLength="216">responseCart: emptyResponseCart</text><polygon fill="#A80036" points="641.5 326.594 651.5 330.594 641.5 334.594 645.5 330.594" style="stroke:#a80036;stroke-width:1"/><line style="stroke:#a80036;stroke-width:1" x1="491.5" x2="647.5" y1="330.594" y2="330.594"/><polygon fill="#A80036" points="502.5 355.904 492.5 359.904 502.5 363.904 498.5 359.904" style="stroke:#a80036;stroke-width:1"/><line style="stroke:#a80036;stroke-width:1;stroke-dasharray:2,2" x1="496.5" x2="657.5" y1="359.904" y2="359.904"/><text x="508.5" y="355.162" fill="#000" font-family="sans-serif" font-size="13" lengthAdjust="spacingAndGlyphs" textLength="94">isLoading: true</text><path fill="#FBFB77" d="M455,372.9043 L455,412.9043 L523,412.9043 L523,382.9043 L513,372.9043 L455,372.9043" filter="url(#f1pek7y79dp0kg)" style="stroke:#a80036;stroke-width:1"/><path fill="#FBFB77" d="M513,372.9043 L513,382.9043 L523,382.9043 L513,372.9043" style="stroke:#a80036;stroke-width:1"/><text x="461" y="390.473" fill="#000" font-family="sans-serif" font-size="13" lengthAdjust="spacingAndGlyphs" textLength="40">render</text><text x="461" y="405.783" fill="#000" font-family="sans-serif" font-size="13" lengthAdjust="spacingAndGlyphs" textLength="47">loading</text><text x="809.5" y="447.16" fill="#000" font-family="sans-serif" font-size="11" lengthAdjust="spacingAndGlyphs" textLength="142">cart loads asynchronously</text><path fill="#FBFB77" d="M982,468.4805 L982,493.4805 L1160,493.4805 L1160,478.4805 L1150,468.4805 L982,468.4805" filter="url(#f1pek7y79dp0kg)" style="stroke:#a80036;stroke-width:1"/><path fill="#FBFB77" d="M1150,468.4805 L1150,478.4805 L1160,478.4805 L1150,468.4805" style="stroke:#a80036;stroke-width:1"/><text x="988" y="486.049" fill="#000" font-family="sans-serif" font-size="13" lengthAdjust="spacingAndGlyphs" textLength="157">getCart bound to cartKey</text><polygon fill="#A80036" points="1664.5 504.791 1674.5 508.791 1664.5 512.791 1668.5 508.791" style="stroke:#a80036;stroke-width:1"/><line style="stroke:#a80036;stroke-width:1" x1="1073.5" x2="1670.5" y1="508.791" y2="508.791"/><polygon fill="#A80036" points="1084.5 534.102 1074.5 538.102 1084.5 542.102 1080.5 538.102" style="stroke:#a80036;stroke-width:1"/><line style="stroke:#a80036;stroke-width:1;stroke-dasharray:2,2" x1="1078.5" x2="1680.5" y1="538.102" y2="538.102"/><text x="1090.5" y="533.359" fill="#000" font-family="sans-serif" font-size="13" lengthAdjust="spacingAndGlyphs" textLength="66">dispatcher</text><polygon fill="#A80036" points="862 563.412 852 567.412 862 571.412 858 567.412" style="stroke:#a80036;stroke-width:1"/><line style="stroke:#a80036;stroke-width:1" x1="856" x2="1072.5" y1="567.412" y2="567.412"/><text x="868" y="562.67" fill="#000" font-family="sans-serif" font-size="13" lengthAdjust="spacingAndGlyphs" textLength="120">getCart, dispatcher</text><polygon fill="#A80036" points="337.5 592.723 327.5 596.723 337.5 600.723 333.5 596.723" style="stroke:#a80036;stroke-width:1"/><line style="stroke:#a80036;stroke-width:1" x1="331.5" x2="850" y1="596.723" y2="596.723"/><text x="343.5" y="591.981" fill="#000" font-family="sans-serif" font-size="13" lengthAdjust="spacingAndGlyphs" textLength="94">&lt;&lt; getCart &gt;&gt;</text><polygon fill="#A80036" points="95.5 622.033 85.5 626.033 95.5 630.033 91.5 626.033" style="stroke:#a80036;stroke-width:1"/><line style="stroke:#a80036;stroke-width:1" x1="89.5" x2="315.5" y1="626.033" y2="626.033"/><text x="101.5" y="621.291" fill="#000" font-family="sans-serif" font-size="13" lengthAdjust="spacingAndGlyphs" textLength="213">GET /me/shopping-cart/{cartKey}</text><polygon fill="#A80036" points="304.5 636.033 314.5 640.033 304.5 644.033 308.5 640.033" style="stroke:#a80036;stroke-width:1"/><line style="stroke:#a80036;stroke-width:1;stroke-dasharray:2,2" x1="79.5" x2="310.5" y1="640.033" y2="640.033"/><polygon fill="#A80036" points="839 650.033 849 654.033 839 658.033 843 654.033" style="stroke:#a80036;stroke-width:1"/><line style="stroke:#a80036;stroke-width:1;stroke-dasharray:2,2" x1="321.5" x2="845" y1="654.033" y2="654.033"/><polygon fill="#A80036" points="1669.5 679.344 1679.5 683.344 1669.5 687.344 1673.5 683.344" style="stroke:#a80036;stroke-width:1"/><line style="stroke:#a80036;stroke-width:1" x1="851" x2="1675.5" y1="683.344" y2="683.344"/><text x="858" y="678.602" fill="#000" font-family="sans-serif" font-size="13" lengthAdjust="spacingAndGlyphs" textLength="272">dispatch RECEIVE_INITIAL_RESPONSE_CART</text><path fill="#FBFB77" d="M1556,696.3438 L1556,751.3438 L1802,751.3438 L1802,706.3438 L1792,696.3438 L1556,696.3438" filter="url(#f1pek7y79dp0kg)" style="stroke:#a80036;stroke-width:1"/><path fill="#FBFB77" d="M1792,696.3438 L1792,706.3438 L1802,706.3438 L1792,696.3438" style="stroke:#a80036;stroke-width:1"/><text x="1562" y="713.912" fill="#000" font-family="sans-serif" font-size="13" lengthAdjust="spacingAndGlyphs" textLength="225">Moves the payload to .responseCart</text><text x="1562" y="729.223" fill="#000" font-family="sans-serif" font-size="13" lengthAdjust="spacingAndGlyphs" textLength="148">updates .couponStatus,</text><text x="1562" y="744.533" fill="#000" font-family="sans-serif" font-size="13" lengthAdjust="spacingAndGlyphs" textLength="193">and sets .cacheStatus to &apos;valid&apos;</text><polygon fill="#A80036" points="1288 763.275 1278 767.275 1288 771.275 1284 767.275" style="stroke:#a80036;stroke-width:1"/><line style="stroke:#a80036;stroke-width:1" x1="1282" x2="1680.5" y1="767.275" y2="767.275"/><path fill="#FBFB77" d="M1180,780.2754 L1180,805.2754 L1369,805.2754 L1369,790.2754 L1359,780.2754 L1180,780.2754" filter="url(#f1pek7y79dp0kg)" style="stroke:#a80036;stroke-width:1"/><path fill="#FBFB77" d="M1359,780.2754 L1359,790.2754 L1369,790.2754 L1359,780.2754" style="stroke:#a80036;stroke-width:1"/><text x="1186" y="797.844" fill="#000" font-family="sans-serif" font-size="13" lengthAdjust="spacingAndGlyphs" textLength="168">stored manager is updated</text><polygon fill="#A80036" points="669.5 816.586 659.5 820.586 669.5 824.586 665.5 820.586" style="stroke:#a80036;stroke-width:1"/><line style="stroke:#a80036;stroke-width:1" x1="663.5" x2="1276" y1="820.586" y2="820.586"/><polygon fill="#A80036" points="502.5 845.896 492.5 849.896 502.5 853.896 498.5 849.896" style="stroke:#a80036;stroke-width:1"/><line style="stroke:#a80036;stroke-width:1" x1="496.5" x2="657.5" y1="849.896" y2="849.896"/><text x="508.5" y="845.154" fill="#000" font-family="sans-serif" font-size="13" lengthAdjust="spacingAndGlyphs" textLength="99">isLoading: false</text><path fill="#FBFB77" d="M437,862.8965 L437,902.8965 L541,902.8965 L541,872.8965 L531,862.8965 L437,862.8965" filter="url(#f1pek7y79dp0kg)" style="stroke:#a80036;stroke-width:1"/><path fill="#FBFB77" d="M531,862.8965 L531,872.8965 L541,872.8965 L531,862.8965" style="stroke:#a80036;stroke-width:1"/><text x="443" y="880.465" fill="#000" font-family="sans-serif" font-size="13" lengthAdjust="spacingAndGlyphs" textLength="40">render</text><text x="443" y="895.775" fill="#000" font-family="sans-serif" font-size="13" lengthAdjust="spacingAndGlyphs" textLength="83">responseCart</text></g></svg>