<svg xmlns="http://www.w3.org/2000/svg" xmlns:xlink="http://www.w3.org/1999/xlink" id="Layer_1" x="0" y="0" version="1.1" viewBox="0 0 194 126" xml:space="preserve" style="enable-background:new 0 0 194 126"><style type="text/css">.st0{fill:none;stroke:#c3c4c7}.st1{fill:#2d3338}.st2{fill:#3c434a;stroke:#c3c4c7}.st3{fill:#2c3338;stroke:#2c3338;stroke-width:2}.st4{fill:#c9356e}.st5{fill:none;stroke:#fff;stroke-width:2;stroke-linecap:round}.st6{fill:#2c3338}.st7{fill:none;stroke:#c3c4c7;stroke-width:1;stroke-miterlimit:4}</style><path d="M7.6,125.2H0" class="st0"/><path d="M150.1,124.8h26.3" class="st0"/><path d="M180.1,124.8h7" class="st0"/><path d="M190.3,124.8h3.7" class="st0"/><rect width="30.6" height="13.5" x="84.6" y="105.9" class="st1"/><path d="M24.5,24.4c0-5.2,4.3-9.5,9.5-9.5h123.4c5.2,0,9.5,4.3,9.5,9.5v100.7H24.5V24.4z" class="st2"/><circle cx="166" cy="20" r="19" class="st3"/><circle cx="166" cy="20" r="17" class="st4"/><line x1="166" x2="166" y1="11" y2="24" class="st5"/><line x1="166" x2="166" y1="28" y2="29" class="st5"/><path d="M24,45.9h142.7" class="st0"/><path d="M40.7,31.4c0,1.8-1.4,3.2-3.2,3.2s-3.2-1.4-3.2-3.2s1.4-3.2,3.2-3.2S40.7,29.7,40.7,31.4z" class="st2"/><path d="M52.3,31.4c0,1.8-1.4,3.2-3.2,3.2s-3.2-1.4-3.2-3.2c0-1.8,1.4-3.2,3.2-3.2S52.3,29.6,52.3,31.4z" class="st2"/><path d="M63.9,31.4c0,1.8-1.4,3.2-3.2,3.2s-3.2-1.4-3.2-3.2c0-1.8,1.4-3.2,3.2-3.2S63.9,29.6,63.9,31.4z" class="st2"/><path d="M43.1,125.2H11" class="st0"/><path d="M24.8,46.7h141.9v78.1H24.8V46.7z" class="st6"/><path d="M167.1,62.5c13.4,11,34.9,35.6,13.8,45.3c-26.4,12.2-44.5-28.8-70.1-28.4" class="st0"/><path d="M24.4,69.6C14.2,75.2-6.4,92.8,7.1,107c13.8,14.6,35.1-8.3,69.7-18.1" class="st0"/><path d="M76.7,88.7c-1.8-5.7,3.8-8.7,6.9-9.4l5,11C85.4,91.7,78.4,94.4,76.7,88.7z" class="st0"/><path d="M111,79.1c0.1,6-6.1,7.3-9.2,7.2l-1.8-12C103.4,73.8,110.9,73.2,111,79.1z" class="st0"/><path d="M94.6,78.3l6.3-0.8" class="st0"/><line x1="78.5" x2="73.8" y1="73.1" y2="69.2" class="st7"/><line x1="88.6" x2="87" y1="67.3" y2="60.2" class="st7"/><line x1="86.2" x2="85.4" y1="57.9" y2="54.7" class="st7"/><path d="M98.7,67.1l2-8.6" class="st0"/><line x1="86.4" x2="83.2" y1="100.5" y2="107.6" class="st7"/><line x1="98.2" x2="99.8" y1="98.6" y2="104.1" class="st7"/><line x1="100.6" x2="101.4" y1="106.5" y2="108.9" class="st7"/><line x1="107.5" x2="114.6" y1="92.8" y2="98.4" class="st7"/><path d="M95.8,84.2l5.5-0.8" class="st0"/></svg>