<svg xmlns="http://www.w3.org/2000/svg" width="50" height="52" fill="none" viewBox="0 0 50 52"><mask id="mask0" width="50" height="35" x="0" y="8" mask-type="alpha" maskUnits="userSpaceOnUse"><path fill="#A7AAAD" d="M39.9484 21.3796C38.5445 14.033 32.289 8.51782 24.7742 8.51782C18.8077 8.51782 13.6258 12.0101 11.0452 17.1207C4.83097 17.8021 0 23.2322 0 29.8121C0 36.8605 5.55355 42.5887 12.3871 42.5887H39.2258C44.9239 42.5887 49.5484 37.8188 49.5484 31.9415C49.5484 26.3198 45.3161 21.7629 39.9484 21.3796Z"/></mask><g mask="url(#mask0)"><rect width="49.548" height="51.106" fill="#069E08"/></g><mask id="mask1" width="50" height="35" x="0" y="8" mask-type="alpha" maskUnits="userSpaceOnUse"><path fill="#fff" d="M39.9484 21.3796C38.5445 14.033 32.289 8.51782 24.7742 8.51782C18.8077 8.51782 13.6258 12.0101 11.0452 17.1207C4.83097 17.8021 0 23.2322 0 29.8121C0 36.8605 5.55355 42.5887 12.3871 42.5887H39.2258C44.9239 42.5887 49.5484 37.8188 49.5484 31.9415C49.5484 26.3198 45.3161 21.7629 39.9484 21.3796Z"/></mask><path fill="#D8D8D8" fill-rule="evenodd" d="M22.6691 30.3927L16.8094 25.4881L15.2244 27.5027L23.0372 34.0422L23.0372 34.0421L23.0373 34.0422L32.5475 21.9544L30.5943 20.3196L22.6691 30.3927Z" clip-rule="evenodd"/><mask id="mask2" width="18" height="15" x="15" y="20" mask-type="alpha" maskUnits="userSpaceOnUse"><path fill="#fff" fill-rule="evenodd" d="M22.6691 30.3927L16.8094 25.4881L15.2244 27.5027L23.0372 34.0422L23.0372 34.0421L23.0373 34.0422L32.5475 21.9544L30.5943 20.3196L22.6691 30.3927Z" clip-rule="evenodd"/></mask><g mask="url(#mask2)"><rect width="20.13" height="20.749" fill="#fff" transform="matrix(0.994289 -0.106717 0.100377 0.99495 13.0974 18.0608)"/></g></svg>