<svg xmlns="http://www.w3.org/2000/svg" width="534" height="442" fill="none" viewBox="0 0 534 442"><path fill="#1381D8" d="M0 0H534V442H0V0Z"/><g filter="url(#filter0_d)"><rect width="322.312" height="272.431" x="141.902" y="84.627" fill="#fff" rx="3.837"/></g><rect width="23.982" height="23.982" x="381.24" y="287.92" stroke="#1E1E1E" stroke-width="2.878" rx="2.398"/><path fill="#1E1E1E" d="M389.395 305.666V294.155L398.987 299.911L389.395 305.666Z"/><rect width="23.982" height="23.982" x="289.15" y="287.92" stroke="#1E1E1E" stroke-width="2.878" rx="2.398"/><path fill="#1E1E1E" stroke="#1E1E1E" stroke-width="1.919" d="M306.897 301.829L303.06 297.033L299.223 301.829V288.399H306.897V301.829Z"/><circle cx="209.051" cy="299.911" r="13.909" stroke="#1E1E1E" stroke-width="2.878"/><path fill="#1E1E1E" d="M206.177 298.666L214.715 292.939L211.936 302.01L203.387 307.676L206.177 298.666Z"/><rect width="46.045" height="46.045" x="370.207" y="184.799" fill="#fff"/><path stroke="#1E1E1E" stroke-width="3.321" d="M406.61 196.606V214.316L399.969 220.957"/><rect width="11.068" height="11.068" x="395.539" y="196.606" fill="#1E1E1E"/><path stroke="#1E1E1E" stroke-width="3.321" d="M388.899 196.606V214.316L382.258 220.957"/><rect width="11.068" height="11.068" x="377.832" y="196.606" fill="#1E1E1E"/><rect width="23.982" height="23.982" x="289.15" y="195.83" stroke="#1E1E1E" stroke-width="2.878" rx="2.398"/><path stroke="#1E1E1E" stroke-linecap="round" stroke-linejoin="bevel" stroke-width="2.878" d="M289.629 215.495L296.779 210.898C297.461 210.459 298.346 210.497 298.988 210.992L302.158 213.438C302.899 214.01 303.946 213.963 304.633 213.327L312.651 205.902"/><line x1="214.647" x2="214.647" y1="223.173" y2="194.182" stroke="#1E1E1E" stroke-width="2.878"/><line x1="206.12" x2="206.12" y1="223.173" y2="194.182" stroke="#1E1E1E" stroke-width="2.878"/><line x1="221.203" x2="204.15" y1="193.912" y2="193.912" stroke="#1E1E1E" stroke-width="2.878"/><path fill="#1E1E1E" stroke="#1E1E1E" stroke-width="2.878" d="M203.562 201.852V209.663C199.863 208.986 197.06 205.746 197.06 201.852C197.06 197.958 199.863 194.719 203.562 194.042V201.852Z"/><rect width="61.393" height="61.393" x="61.324" y="84.63" fill="#fff" rx="3.837"/><path stroke="#3E58E1" stroke-width="2.878" d="M91.5432 105.733V126.837M80.5117 115.806H101.616"/><rect width="278.186" height="44.126" x="163.967" y="108.609" stroke="#3E58E1" stroke-width="1.919" rx="2.878"/><path stroke="#1E1E1E" stroke-width="2.878" d="M404.742 142.184L412.416 135.469"/><circle cx="419.13" cy="129.713" r="9.113" stroke="#1E1E1E" stroke-width="2.878"/><defs><filter id="filter0_d" width="411.113" height="361.231" x="97.502" y="44.667" color-interpolation-filters="sRGB" filterUnits="userSpaceOnUse"><feFlood flood-opacity="0" result="BackgroundImageFix"/><feColorMatrix in="SourceAlpha" type="matrix" values="0 0 0 0 0 0 0 0 0 0 0 0 0 0 0 0 0 0 127 0"/><feOffset dy="4.44"/><feGaussianBlur stdDeviation="22.2"/><feColorMatrix type="matrix" values="0 0 0 0 0.0980392 0 0 0 0 0.117647 0 0 0 0 0.137255 0 0 0 0.1 0"/><feBlend in2="BackgroundImageFix" mode="normal" result="effect1_dropShadow"/><feBlend in="SourceGraphic" in2="effect1_dropShadow" mode="normal" result="shape"/></filter></defs></svg>